<svg width="750" height="768" viewBox="0 0 750 768" fill="none" xmlns="http://www.w3.org/2000/svg">
<path d="M618.79 412.53C618.663 412.597 618.53 412.627 618.39 412.62C618.377 412.62 618.37 412.62 618.37 412.62C618.37 412.613 618.37 412.607 618.37 412.6C618.37 412.587 618.377 412.58 618.39 412.58L627.05 412.27L663.54 412.24C663.649 412.24 663.757 412.219 663.858 412.177C663.958 412.135 664.05 412.074 664.127 411.997C664.204 411.92 664.265 411.828 664.307 411.728C664.348 411.627 664.37 411.519 664.37 411.41L664.49 359.57C664.49 359.325 664.393 359.09 664.221 358.916C664.049 358.742 663.815 358.643 663.57 358.64L649.01 358.48C648.71 358.473 648.56 358.32 648.56 358.02L648.85 342.97C648.857 342.723 648.983 342.6 649.23 342.6C657.53 342.547 665.783 342.513 673.99 342.5C678.997 342.493 682.33 344.403 683.99 348.23C684.763 349.997 685.16 353.393 685.18 358.42C685.26 376.553 685.23 394.753 685.09 413.02C685.087 413.279 685.155 413.535 685.287 413.758C685.419 413.982 685.611 414.166 685.84 414.29C693.2 418.25 697.797 424.167 699.63 432.04C700.61 436.24 700.34 441.49 700.27 446.11C700.268 446.205 700.286 446.299 700.323 446.387C700.36 446.474 700.414 446.553 700.482 446.619C700.551 446.685 700.632 446.736 700.721 446.769C700.81 446.801 700.905 446.816 701 446.81C713.58 446.22 724.1 447.59 733.64 456.35C744.52 466.33 749.947 478.797 749.92 493.75C749.813 559.497 749.75 625.247 749.73 691C749.73 695.98 747.56 700.26 743.09 702.48C741.623 703.213 739.34 703.583 736.24 703.59C703.82 703.677 671.407 703.72 639 703.72C638.22 703.72 637.093 703.393 635.62 702.74C631.16 700.033 628.907 695.787 628.86 690C628.76 678.407 628.853 666.823 629.14 655.25C629.28 649.45 631.763 645.24 636.59 642.62C639.82 640.87 644.03 640.91 647.75 640.9C672.037 640.833 697.483 640.837 724.09 640.91C724.91 640.917 725.32 640.507 725.32 639.68L725.35 623.52C725.35 623.369 725.289 623.224 725.18 623.117C725.071 623.01 724.924 622.95 724.77 622.95L611.02 623.06C610.673 623.06 610.497 623.237 610.49 623.59C610.13 646.72 610.59 670.61 610.52 693.01C610.507 696.85 608.727 700.077 605.18 702.69C599.17 705.1 590.81 704.32 588.33 697.64C587.777 696.153 587.497 693.36 587.49 689.26C587.45 667.44 587.447 645.617 587.48 623.79C587.48 623.443 587.307 623.267 586.96 623.26C568.01 623.19 549.18 623.74 530.25 622.94C529.917 622.927 529.713 622.85 529.64 622.71C529.556 622.561 529.527 622.387 529.558 622.219C529.589 622.051 529.678 621.899 529.81 621.79C533.943 618.363 538.007 614.85 542 611.25C550.887 603.23 557.69 593.723 562.41 582.73C562.73 581.983 562.95 581.32 563.07 580.74C563.092 580.632 563.137 580.529 563.202 580.44C563.268 580.351 563.352 580.278 563.448 580.225C563.545 580.172 563.652 580.142 563.761 580.136C563.87 580.13 563.979 580.148 564.08 580.19C572.2 583.47 574.28 591.52 570.8 599.06C570.766 599.131 570.751 599.21 570.756 599.288C570.761 599.367 570.785 599.443 570.827 599.51C570.869 599.576 570.927 599.631 570.995 599.67C571.064 599.708 571.141 599.729 571.22 599.73L586.76 599.75C587.413 599.75 587.737 599.423 587.73 598.77C587.657 590.09 587.607 581.5 587.58 573C587.57 568.77 589.91 564.12 593.92 562.37C595.227 561.797 597.483 561.5 600.69 561.48C605.297 561.453 609.9 561.47 614.5 561.53C622.42 561.63 627.15 568.99 622.55 575.82C619.9 579.76 615.85 580.04 611.6 579.75C611.499 579.742 611.398 579.754 611.302 579.787C611.207 579.82 611.119 579.873 611.044 579.941C610.97 580.01 610.911 580.093 610.871 580.186C610.83 580.279 610.81 580.379 610.81 580.48L610.69 598.88C610.69 598.98 610.693 599.037 610.7 599.05C610.747 599.123 610.793 599.2 610.84 599.28C610.86 599.36 610.897 599.437 610.95 599.51C611.083 599.677 611.26 599.76 611.48 599.76L723.9 599.93C724.319 599.93 724.721 599.764 725.017 599.467C725.313 599.171 725.48 598.769 725.48 598.35L725.42 509.92C725.42 509.58 725.25 509.41 724.91 509.41L694.47 509.54C693.963 509.54 693.707 509.797 693.7 510.31L693.52 528.23C693.653 529.93 693.723 532.603 693.73 536.25C693.75 546.17 686.5 553.01 676.75 552.99C640.997 552.923 605.247 552.883 569.5 552.87C567.36 552.87 565.28 552.937 563.26 553.07C563.139 553.078 563.024 553.128 562.935 553.212C562.846 553.296 562.788 553.408 562.77 553.53C559.39 578.31 544.35 600.27 523.96 614.03C523.68 614.217 523.54 614.477 523.54 614.81C523.593 647.883 523.597 680.957 523.55 714.03C523.54 725.95 523.67 732.46 517.52 741.03C516.707 742.157 515.963 743.237 515.29 744.27C515.243 744.339 515.216 744.419 515.212 744.502C515.208 744.585 515.227 744.668 515.267 744.742C515.307 744.816 515.367 744.878 515.439 744.921C515.512 744.965 515.595 744.989 515.68 744.99C544.76 744.99 573.897 745 603.09 745.02C606.923 745.02 609.653 745.353 611.28 746.02C619.18 749.24 620.53 760.06 613.92 765.45C611.13 767.74 608.56 767.56 604.26 767.56C458.84 767.653 313.42 767.737 168 767.81C153.767 767.817 144.85 767.707 141.25 767.48C139.157 767.34 137.223 766.047 135.45 763.6C132.737 759.86 132.18 755.91 133.78 751.75C135.81 746.48 139.86 745.34 145.48 745.23C173.21 744.67 201.01 744.97 228.75 744.97C230.843 744.97 232.96 744.883 235.1 744.71C235.169 744.705 235.236 744.681 235.292 744.641C235.349 744.601 235.394 744.546 235.423 744.482C235.451 744.418 235.462 744.347 235.455 744.276C235.447 744.205 235.421 744.138 235.38 744.08C229.58 736.07 227.45 729.56 227.46 719.54C227.5 684.6 227.48 649.687 227.4 614.8C227.4 614.576 227.344 614.355 227.238 614.158C227.131 613.961 226.977 613.793 226.79 613.67C205.89 600.13 192.32 577.9 187.95 553.68C187.883 553.327 187.673 553.15 187.32 553.15C163.32 552.94 137.96 553.36 107.92 553.06C98.1699 552.96 86.1399 553.4 75.2499 553.19C58.2399 552.85 55.9299 542.63 56.4999 528.13L56.4299 512.69C56.4299 512.397 56.2833 512.25 55.9899 512.25L24.9699 512.27C24.6299 512.27 24.4599 512.44 24.4599 512.78L24.4299 599.59C24.43 599.639 24.4396 599.688 24.4583 599.734C24.4771 599.78 24.5045 599.821 24.539 599.855C24.5735 599.89 24.6143 599.917 24.6592 599.935C24.704 599.953 24.7519 599.961 24.7999 599.96L39.8499 599.81L48.6599 599.94C49.0999 599.947 49.1833 599.78 48.9099 599.44C48.1999 598.55 47.1899 597.78 46.6199 596.89C42.7399 590.78 44.1099 582.79 51.0399 579.54C52.7099 578.75 57.9499 578.92 60.3099 578.72C68.7366 578.027 76.3199 578.747 83.0599 580.88C86.9999 585.967 87.6699 590.973 85.0699 595.9C84.4099 597.15 83.2799 598.21 82.1099 598.89C82.0027 598.954 81.9193 599.051 81.8726 599.167C81.8259 599.282 81.8184 599.41 81.8513 599.53C81.8843 599.651 81.9558 599.757 82.0549 599.833C82.154 599.909 82.2752 599.95 82.3999 599.95H105.93C106.075 599.95 106.218 599.921 106.352 599.864C106.485 599.808 106.606 599.725 106.708 599.621C106.809 599.517 106.889 599.393 106.943 599.257C106.996 599.121 107.023 598.976 107.02 598.83C106.89 592.97 106.35 586.41 110.85 581.65C113.423 579.997 116.137 579.397 118.99 579.85C129.74 581.54 128.71 591.02 128.25 599.18C128.246 599.252 128.256 599.324 128.281 599.392C128.305 599.46 128.343 599.522 128.391 599.575C128.44 599.627 128.499 599.669 128.564 599.697C128.629 599.726 128.699 599.74 128.77 599.74L141.99 599.77C142.357 599.77 142.54 599.583 142.54 599.21C142.513 597.437 142.427 594.04 142.28 589.02C141.94 576.77 159.09 576.12 159.05 589.06C159.043 592.36 159.007 595.68 158.94 599.02C158.939 599.123 158.958 599.226 158.996 599.322C159.035 599.417 159.092 599.505 159.165 599.578C159.237 599.651 159.324 599.71 159.419 599.75C159.514 599.79 159.617 599.81 159.72 599.81L172.75 599.74C173.103 599.74 173.277 599.563 173.27 599.21C172.99 589.62 172.64 579.28 185.46 579.28C185.803 579.28 186.139 579.383 186.425 579.575C186.712 579.767 186.936 580.04 187.07 580.36C194.52 598.22 206.19 609.96 221 621.76C221.102 621.841 221.178 621.949 221.221 622.071C221.263 622.194 221.269 622.326 221.239 622.453C221.208 622.579 221.142 622.694 221.048 622.784C220.955 622.874 220.837 622.935 220.71 622.96C219.183 623.273 217.53 623.433 215.75 623.44C180.717 623.52 145.48 623.423 110.04 623.15L24.8899 623.13C24.6033 623.13 24.4599 623.273 24.4599 623.56L24.3899 680.75C24.3899 680.847 24.4089 680.942 24.4457 681.032C24.4825 681.121 24.5365 681.202 24.6044 681.27C24.6723 681.338 24.7529 681.391 24.8414 681.427C24.9299 681.463 25.0246 681.481 25.1199 681.48L57.7399 681.22L105.17 681.49C105.316 681.49 105.456 681.433 105.559 681.332C105.662 681.231 105.72 681.093 105.72 680.95L105.74 664.27C105.74 664.071 105.661 663.88 105.52 663.74C105.38 663.599 105.189 663.52 104.99 663.52C87.4166 663.62 70.0033 663.613 52.7499 663.5C50.7899 663.487 48.9366 662.55 47.1899 660.69C41.9699 652.24 45.4999 641.09 56.2499 640.98C67.6033 640.86 85.7199 640.87 110.6 641.01C117.95 640.75 124.17 642.47 127.26 649.55C128.207 651.703 128.697 655.68 128.73 661.48C128.797 671.48 128.79 681.487 128.71 691.5C128.66 698.05 124.11 703.64 117.25 703.65C82.4166 703.683 47.5833 703.69 12.7499 703.67C2.99994 703.67 0.709938 695.18 0.709938 687.23C0.723271 626.377 0.716608 565.523 0.689941 504.67C0.689941 498.15 1.05994 493.397 1.79994 490.41C5.81994 474.2 19.5499 463.41 36.2699 463.07C42.9566 462.937 49.6366 462.81 56.3099 462.69C56.5166 462.69 56.6233 462.587 56.6299 462.38V462.13C56.6366 462.083 56.6166 462.06 56.5699 462.06C50.9299 461.66 44.6499 461.36 39.6599 459.4C29.6399 455.45 21.8299 446.69 19.1899 436.18C18.5499 433.633 18.2333 429.49 18.2399 423.75C18.2866 364.417 18.2766 305.083 18.2099 245.75C18.1999 231.65 28.2399 218.26 41.7099 214.11C45.0899 213.07 50.9999 212.543 59.4399 212.53C83.2933 212.497 107.147 212.493 131 212.52C135.53 212.52 136.31 217.58 136.23 221.5C136.13 226.753 135.987 231.967 135.8 237.14C135.793 237.36 135.683 237.47 135.47 237.47C109.57 237.503 83.7466 237.42 57.9999 237.22C49.1299 237.15 40.8899 240.13 41.4099 250.59C41.4197 250.742 41.4814 250.885 41.5846 250.996C41.6879 251.108 41.8263 251.18 41.9767 251.201C42.127 251.222 42.28 251.191 42.4099 251.112C42.5399 251.034 42.6388 250.913 42.6899 250.77C45.8499 241.69 50.6799 239.58 59.9999 239.56C81.9866 239.527 103.977 239.507 125.97 239.5C128.65 239.5 131.97 239.19 135.06 239.18C135.272 239.179 135.477 239.258 135.634 239.4C135.792 239.543 135.89 239.739 135.91 239.95C136.103 241.937 136.197 244.037 136.19 246.25C136.177 257.363 136.13 268.707 136.05 280.28C136.047 280.671 135.89 281.045 135.613 281.32C135.336 281.595 134.961 281.75 134.57 281.75L80.4399 281.74C79.4151 281.737 78.4288 282.132 77.6885 282.842C76.9481 283.553 76.5113 284.523 76.4699 285.55L76.4299 286.71C76.3033 290.023 77.8966 291.67 81.2099 291.65L126.77 291.43C127.543 291.43 127.647 291.693 127.08 292.22C121.94 297.06 117.1 301.51 113.54 307.73C113.36 308.037 113.093 308.183 112.74 308.17C111.63 308.12 110.39 307.7 109.39 307.72C100.157 307.92 90.8966 307.953 81.6099 307.82C78.3566 307.773 76.7599 309.377 76.8199 312.63V312.97C76.8799 316.123 78.4866 317.71 81.6399 317.73L107.94 317.95C108.054 317.951 108.165 317.982 108.263 318.04C108.361 318.099 108.442 318.182 108.497 318.282C108.553 318.383 108.582 318.496 108.58 318.612C108.579 318.727 108.548 318.84 108.49 318.94C105.66 323.64 104.8 328.41 103.24 333.64C103.203 333.769 103.123 333.883 103.013 333.965C102.903 334.046 102.769 334.09 102.63 334.09L61.9699 333.91C58.8433 333.897 57.2266 335.45 57.1199 338.57L57.0799 339.76C57.0638 340.248 57.1464 340.735 57.3228 341.191C57.4992 341.646 57.7659 342.062 58.1067 342.412C58.4475 342.762 58.8556 343.04 59.3063 343.229C59.7571 343.417 60.2413 343.513 60.7299 343.51L102.49 343.26C102.529 343.26 102.567 343.268 102.603 343.283C102.639 343.298 102.672 343.32 102.699 343.348C102.726 343.376 102.747 343.41 102.761 343.446C102.775 343.482 102.781 343.521 102.78 343.56C102.547 348.487 102.783 353.383 103.49 358.25C103.583 358.89 103.307 359.21 102.66 359.21C88.9666 359.257 75.4833 359.183 62.2099 358.99C55.4499 358.89 54.9999 368.79 61.6799 368.78C75.8799 368.767 90.1333 368.753 104.44 368.74C104.751 368.74 105.056 368.827 105.318 368.992C105.58 369.156 105.789 369.392 105.92 369.67C109.36 376.87 111.43 382.22 117.21 389.53C129.937 405.597 146.463 414.44 166.79 416.06C167.013 416.077 167.221 416.176 167.375 416.337C167.528 416.498 167.615 416.709 167.62 416.93L167.64 417.35C167.653 417.857 167.403 418.13 166.89 418.17C164.27 418.383 161.723 418.493 159.25 418.5C121.417 418.547 83.5833 418.583 45.7499 418.61C45.3299 418.61 44.8899 418.637 44.4299 418.69C44.1233 418.73 43.8666 418.867 43.6599 419.1C40.3399 422.953 39.9566 427.073 42.5099 431.46C43.4899 433.14 45.0499 433.75 47.0699 433.75C78.2966 433.77 109.523 433.773 140.75 433.76C142.757 433.76 144.423 434.703 145.75 436.59L145.78 463.18C145.78 463.38 145.859 463.572 145.999 463.714C146.139 463.856 146.33 463.937 146.53 463.94L169.69 463.98C170.283 463.98 170.58 463.687 170.58 463.1C170.567 457.22 170.647 451.187 170.82 445C170.933 440.913 172.89 437.96 176.69 436.14C184.21 433.75 192.33 437.27 192.39 445.99C192.443 453.717 192.473 461.44 192.48 469.16C192.48 470.533 192.14 471.803 191.46 472.97C189.45 476.47 187.81 480.3 185.66 483.76C185.48 484.047 185.22 484.183 184.88 484.17C178.79 483.92 170.9 484.16 166.64 484.15C134.84 484.117 103.043 484.123 71.2499 484.17C61.8399 484.18 46.7499 483.68 35.2499 484.22C27.3299 484.59 23.7299 494.78 24.4199 501.22C24.4399 501.427 24.5533 501.53 24.7599 501.53L180.77 501.5C181.257 501.5 181.473 501.743 181.42 502.23L180.28 511.54C180.11 511.9 179.59 512.25 179.14 512.26C145.78 512.56 112.36 512.557 78.8799 512.25C78.7798 512.249 78.6803 512.267 78.5875 512.304C78.4947 512.342 78.4103 512.397 78.3395 512.467C78.2686 512.537 78.2127 512.62 78.175 512.711C78.1373 512.803 78.1186 512.901 78.1199 513L78.2099 527.51C78.2166 528.043 78.4833 528.31 79.0099 528.31L186.63 528.16C186.888 528.16 187.137 528.062 187.323 527.884C187.51 527.707 187.62 527.466 187.63 527.21L188.28 513.22C190.57 489.07 202.7 464.98 222.11 449.38C225.017 447.047 227.83 444.837 230.55 442.75C231.043 442.377 231 442.08 230.42 441.86C211.767 434.787 196.997 422.9 186.11 406.2C185.923 405.907 185.657 405.763 185.31 405.77C180.123 405.81 174.937 405.773 169.75 405.66C155.997 405.367 143.917 400.817 133.51 392.01C119.78 380.4 110.86 363.21 111.31 344.91C111.84 323.21 123.82 302.24 143.78 292.27C144.1 292.11 144.247 291.853 144.22 291.5C144.09 289.57 143.86 287.56 143.86 285.73C143.873 253.903 143.837 222.077 143.75 190.25C143.723 181.523 144.08 174.88 144.82 170.32C151.02 132.25 180.91 102.2 218.2 93.45C219.48 93.15 221.54 93.83 222.12 91.89C227.53 73.87 242.66 63.37 260.76 62.6C264.007 62.46 267.253 62.32 270.5 62.18C270.847 62.1667 271.103 62.0067 271.27 61.7C284.323 37.8667 303.05 20.7567 327.45 10.37C354.24 -1.03999 385.44 -2.35999 413.01 6.01001C423.25 9.12334 433.71 14.16 444.39 21.12C459.623 31.0467 471.73 44.6933 480.71 62.06C480.87 62.3733 481.13 62.5233 481.49 62.51C486.95 62.3233 491.37 62.4067 494.75 62.76C511.15 64.47 525.32 76.12 529.31 92.41C529.39 92.73 529.59 92.9167 529.91 92.97C568.9 99.41 601.49 132.86 606.94 172.04C607.467 175.847 607.733 181.667 607.74 189.5C607.78 223.16 607.763 257.217 607.69 291.67C607.69 291.848 607.737 292.022 607.827 292.173C607.917 292.325 608.046 292.448 608.2 292.53C628.92 303.4 641.14 324.84 640.38 348.25C639.96 361.183 635.507 372.95 627.02 383.55C611.76 402.63 589.43 407.33 566.13 405.67C566.015 405.661 565.9 405.683 565.796 405.734C565.693 405.785 565.604 405.863 565.54 405.96C558.42 416.613 549.6 425.46 539.08 432.5C533.82 436.02 527.21 439.23 521.15 442.31C521.055 442.357 520.975 442.428 520.917 442.517C520.858 442.605 520.824 442.707 520.818 442.813C520.812 442.918 520.834 443.023 520.882 443.118C520.929 443.212 521.001 443.292 521.09 443.35C549.23 461.81 563.57 493.4 563.53 526.52C563.53 526.907 563.723 527.113 564.11 527.14C565.25 527.2 566.79 526.88 567.66 526.88C601.92 526.7 636.237 526.693 670.61 526.86C671.043 526.86 671.26 526.643 671.26 526.21L671.28 509.56C671.28 509.433 671.23 509.311 671.142 509.221C671.054 509.131 670.935 509.08 670.81 509.08L571.98 509.3C571.553 509.3 571.303 509.093 571.23 508.68C569.91 501.247 568.093 493.94 565.78 486.76C565.744 486.646 565.735 486.526 565.754 486.408C565.773 486.291 565.82 486.179 565.89 486.083C565.96 485.987 566.051 485.908 566.157 485.854C566.263 485.799 566.381 485.771 566.5 485.77L724.98 485.8C725.267 485.8 725.417 485.657 725.43 485.37C725.73 476.55 719.88 467.73 710.27 467.74C663.683 467.793 617.093 467.853 570.5 467.92C564.99 467.93 563.84 469.83 560.27 472.45C559.977 472.663 559.74 472.613 559.56 472.3C557.627 469 555.733 466.197 553.88 463.89C551.59 461.04 552.61 458.1 554.78 455.3C557.9 451.267 561.947 448.663 566.92 447.49C567.267 447.403 567.443 447.183 567.45 446.83C567.54 443.68 567.29 440.02 567.54 437.38C568.46 427.427 573.353 420.477 582.22 416.53C583.76 415.843 585.843 415.393 588.47 415.18C596.617 414.527 604.473 412.207 612.04 408.22C612.172 408.151 612.32 408.118 612.469 408.123C612.618 408.128 612.763 408.171 612.891 408.249C613.019 408.326 613.124 408.435 613.197 408.565C613.271 408.694 613.309 408.841 613.31 408.99C613.31 409.803 613.083 410.517 612.63 411.13C612.577 411.202 612.543 411.286 612.533 411.375C612.523 411.464 612.536 411.554 612.572 411.636C612.607 411.718 612.663 411.789 612.735 411.843C612.807 411.896 612.891 411.93 612.98 411.94C614.793 412.16 616.577 412.227 618.33 412.14C618.45 412.133 618.55 412.153 618.63 412.2C618.77 412.3 618.823 412.41 618.79 412.53ZM438.53 118.56L465.62 118.5C465.738 118.5 465.851 118.453 465.935 118.369C466.019 118.285 466.067 118.17 466.07 118.05C466.82 92.61 460.67 71.04 442.25 53C433.983 44.9 424.057 38.4633 412.47 33.69L401.96 29.68L390.34 27.45C390.288 27.4397 390.235 27.4413 390.183 27.4546C390.132 27.4679 390.084 27.4926 390.043 27.5269C390.002 27.5613 389.969 27.6045 389.946 27.6534C389.923 27.7023 389.911 27.7558 389.91 27.81C389.823 46.09 389.71 64.4033 389.57 82.75C389.537 86.9433 387.997 90.0967 384.95 92.21C377.61 97.2967 370.89 96.4733 364.79 89.74C363.55 87.1267 362.937 84.7133 362.95 82.5C363.01 64.78 362.96 47.06 362.8 29.34C362.79 28.9 363.04 28.44 363 27.94C362.973 27.5667 362.773 27.4067 362.4 27.46C361.433 27.6 360.467 27.7467 359.5 27.9C315.47 34.92 281.41 72.39 285.7 118.26C285.733 118.587 285.913 118.75 286.24 118.75L438.53 118.56ZM504.29 95.24C501.66 90.55 496.06 88.32 490.97 88.81C490.55 88.85 490.357 89.08 490.39 89.5C491.197 99.08 491.42 108.677 491.06 118.29C491.057 118.36 491.069 118.431 491.095 118.496C491.12 118.562 491.159 118.621 491.209 118.671C491.259 118.721 491.318 118.76 491.384 118.785C491.449 118.811 491.52 118.823 491.59 118.82L503.11 118.48C503.643 118.463 504.152 118.253 504.542 117.889C504.933 117.525 505.177 117.031 505.23 116.5C505.76 110.88 507.09 100.23 504.29 95.24ZM260.01 89.02C254.69 88.87 249.33 91.13 246.78 95.87C244.55 100.01 245.32 109.55 245.87 113.82C246.263 116.893 248.14 118.47 251.5 118.55C255.107 118.643 257.663 118.683 259.17 118.67C259.583 118.67 259.787 118.467 259.78 118.06C259.693 111.76 259.687 105.457 259.76 99.15C259.79 96.13 260.29 92.78 260.52 89.57C260.547 89.21 260.377 89.0267 260.01 89.02ZM579.3 167.53C578.607 166.077 578.313 165.043 578.42 164.43C569.867 141.263 553.823 125.9 530.29 118.34C529.93 118.227 529.713 118.357 529.64 118.73C525.63 138.73 510.55 146.07 491.43 143.91C491.325 143.899 491.219 143.909 491.119 143.938C491.018 143.968 490.924 144.018 490.843 144.084C490.762 144.15 490.695 144.231 490.647 144.324C490.598 144.416 490.569 144.516 490.56 144.62C488.08 172.82 463.06 193.47 435.16 194.33C432.567 194.41 432.54 194.72 435.08 195.26C452.11 198.86 469.19 199.85 486.99 200.01C519.103 200.31 550.577 195.677 581.41 186.11C581.651 186.036 581.862 185.885 582.01 185.679C582.158 185.473 582.235 185.224 582.23 184.97C582.063 178.79 581.087 172.977 579.3 167.53ZM315.38 243.22L317.85 243.21C318.183 243.21 318.38 243.043 318.44 242.71C318.58 241.877 318.67 241.057 318.71 240.25C319.14 232.55 326.7 230.39 332.75 233.51C354.823 244.87 377.997 251.443 402.27 253.23C437.23 255.81 473.18 246.29 503.4 228.75C503.582 228.639 503.725 228.475 503.81 228.28C504.083 227.613 503.813 227.303 503 227.35C495.447 227.797 487.87 228.067 480.27 228.16C448.4 228.46 417.15 222.54 389.34 206.44C384.313 203.533 379.613 199.647 375.24 194.78C375.013 194.533 374.733 194.41 374.4 194.41C355.1 194.497 335.8 194.547 316.5 194.56C287.48 194.57 264.37 172.91 260.07 144.77C260.023 144.443 259.833 144.28 259.5 144.28C249.5 144.35 242.9 144.65 235.04 139.17C228.533 134.637 224.27 127.907 222.25 118.98C222.17 118.607 221.943 118.477 221.57 118.59C196.86 125.89 176.77 145.57 171.15 171.11C170.21 175.403 169.737 182.033 169.73 191C169.73 210.54 169.723 230 169.71 249.38C169.71 249.7 169.873 249.837 170.2 249.79C178.75 248.51 187.37 248.77 193.75 254.81C193.794 254.85 193.848 254.877 193.907 254.887C193.966 254.898 194.026 254.891 194.081 254.868C194.136 254.844 194.183 254.806 194.216 254.757C194.25 254.707 194.268 254.65 194.27 254.59C194.377 245.017 194.453 235.473 194.5 225.96C194.52 222.97 195.14 220.82 196.82 218.58C201.28 212.63 206.98 212.14 213.92 212.27C214.28 212.277 214.48 212.103 214.52 211.75C215.04 206.83 217.76 201.88 223.59 203.04C225.123 203.347 226.397 204.027 227.41 205.08C250.68 229.11 282 244.15 315.38 243.22ZM427.54 143.72L287.04 143.63C286.885 143.631 286.733 143.666 286.594 143.733C286.455 143.8 286.333 143.898 286.237 144.018C286.141 144.138 286.074 144.277 286.039 144.427C286.005 144.576 286.005 144.731 286.04 144.88C288.093 153.693 292.86 160.353 300.34 164.86C304.053 167.1 307.44 168.22 310.5 168.22C348.36 168.233 386.183 168.273 423.97 168.34C443.3 169.99 461.82 166.31 465.56 144.11C465.573 144.032 465.568 143.951 465.547 143.875C465.525 143.798 465.487 143.727 465.435 143.666C465.382 143.605 465.317 143.556 465.244 143.522C465.171 143.488 465.091 143.471 465.01 143.47L427.54 143.72ZM213.32 294.92C209.287 299.927 204.277 303.837 198.29 306.65C196.89 307.3 196.67 308.06 196.68 309.5C196.76 321.573 196.817 339.407 196.85 363C196.863 369.833 198.32 376.333 201.22 382.5C210.74 402.71 230.48 417.68 252.31 421.41C256.33 422.097 262.977 422.447 272.25 422.46C343.75 422.547 415.25 422.547 486.75 422.46C505.303 422.433 521.203 416.103 534.45 403.47C543.7 394.65 551.21 383.58 553.84 371.25C554.453 368.337 554.76 364.48 554.76 359.68C554.753 342.273 554.747 324.837 554.74 307.37C554.74 306.93 554.547 306.61 554.16 306.41C545.01 301.72 538.14 293.91 537.3 283.25C536.887 278.063 536.823 270.66 537.11 261.04V241.49C537.11 241.406 537.092 241.323 537.056 241.246C537.02 241.17 536.967 241.103 536.902 241.049C536.837 240.996 536.761 240.957 536.68 240.937C536.598 240.916 536.513 240.914 536.43 240.93C536.11 240.997 535.74 241.147 535.32 241.38C529.28 244.74 523.217 248.06 517.13 251.34C503.95 258.44 490.24 264.323 476 268.99C431.5 283.57 382.96 282.15 339.73 263.78C339.157 263.54 338.583 263.537 338.01 263.77C314.29 273.44 284.5 268.49 261.62 258.84C245.613 252.093 231.287 242.767 218.64 230.86C218.32 230.56 218.133 230.627 218.08 231.06C217.78 233.613 217.653 236.177 217.7 238.75C218 254.517 217.597 270.27 216.49 286.01C216.37 287.783 215.313 290.753 213.32 294.92ZM61.5858 266.069C62.7871 266.09 63.948 265.603 64.8132 264.714C65.6783 263.825 66.1769 262.607 66.1992 261.329C66.2103 260.696 66.1041 260.067 65.8867 259.479C65.6693 258.89 65.3449 258.353 64.9321 257.898C64.5194 257.443 64.0262 257.08 63.4809 256.828C62.9356 256.576 62.3488 256.441 61.754 256.431C60.5528 256.41 59.3919 256.897 58.5267 257.786C57.6615 258.675 57.163 259.893 57.1406 261.171C57.1296 261.804 57.2358 262.433 57.4532 263.021C57.6706 263.61 57.995 264.147 58.4077 264.602C58.8205 265.057 59.3136 265.42 59.8589 265.672C60.4042 265.924 60.991 266.059 61.5858 266.069ZM100.89 260.6C100.89 259.513 100.458 258.47 99.6891 257.701C98.9202 256.932 97.8773 256.5 96.7899 256.5H80.6299C79.5426 256.5 78.4997 256.932 77.7308 257.701C76.9619 258.47 76.5299 259.513 76.5299 260.6V261.82C76.5299 262.358 76.636 262.892 76.842 263.389C77.0481 263.886 77.3501 264.338 77.7308 264.719C78.1115 265.1 78.5635 265.402 79.0609 265.608C79.5584 265.814 80.0915 265.92 80.6299 265.92H96.7899C97.3284 265.92 97.8615 265.814 98.3589 265.608C98.8564 265.402 99.3084 265.1 99.6891 264.719C100.07 264.338 100.372 263.886 100.578 263.389C100.784 262.892 100.89 262.358 100.89 261.82V260.6ZM66.3399 286.93C66.3399 285.665 65.8374 284.452 64.9428 283.557C64.0483 282.663 62.835 282.16 61.5699 282.16C60.3049 282.16 59.0916 282.663 58.197 283.557C57.3025 284.452 56.7999 285.665 56.7999 286.93C56.7999 288.195 57.3025 289.408 58.197 290.303C59.0916 291.197 60.3049 291.7 61.5699 291.7C62.835 291.7 64.0483 291.197 64.9428 290.303C65.8374 289.408 66.3399 288.195 66.3399 286.93ZM66.3199 312.77C66.3199 311.513 65.8205 310.307 64.9316 309.418C64.0427 308.529 62.8371 308.03 61.5799 308.03C60.3228 308.03 59.1172 308.529 58.2283 309.418C57.3393 310.307 56.8399 311.513 56.8399 312.77C56.8399 313.392 56.9625 314.009 57.2007 314.584C57.439 315.159 57.7881 315.682 58.2283 316.122C58.6684 316.562 59.1909 316.911 59.766 317.149C60.3411 317.387 60.9575 317.51 61.5799 317.51C62.2024 317.51 62.8188 317.387 63.3939 317.149C63.9689 316.911 64.4915 316.562 64.9316 316.122C65.3718 315.682 65.7209 315.159 65.9591 314.584C66.1973 314.009 66.3199 313.392 66.3199 312.77ZM138 339.49C133.88 358.83 149.84 379.79 170.83 376.47C171.15 376.417 171.287 376.233 171.24 375.92C170.64 371.87 170.18 368 170.19 363.83C170.237 348.323 170.2 332.673 170.08 316.88C170.08 316.62 169.95 316.473 169.69 316.44C154.61 314.51 141.11 324.91 138 339.49ZM601.49 371.75C617.27 359.94 619.33 337.77 605.01 323.75C598.3 317.18 591.02 315.99 581.91 316.55C581.603 316.57 581.45 316.737 581.45 317.05C581.583 333.53 581.547 350.013 581.34 366.5C581.293 369.733 580.82 372.923 579.92 376.07C579.897 376.15 579.892 376.234 579.906 376.316C579.92 376.398 579.953 376.475 580.001 376.542C580.049 376.609 580.112 376.663 580.185 376.701C580.258 376.739 580.338 376.759 580.42 376.76C588.3 376.94 594.49 376.98 601.49 371.75ZM90.8418 391.7C90.8431 390.958 90.6983 390.223 90.4155 389.537C90.1328 388.851 89.7177 388.227 89.194 387.702C88.6703 387.176 88.0481 386.759 87.3631 386.474C86.6782 386.189 85.9437 386.041 85.2017 386.04L62.4817 386C61.7398 385.999 61.0048 386.144 60.3188 386.427C59.6328 386.709 59.0093 387.124 58.4837 387.648C57.9581 388.172 57.5408 388.794 57.2557 389.479C56.9706 390.164 56.8231 390.898 56.8218 391.64L56.818 393.84C56.8167 394.582 56.9616 395.317 57.2443 396.003C57.5271 396.689 57.9421 397.313 58.4659 397.838C58.9896 398.364 59.6117 398.781 60.2967 399.066C60.9817 399.351 61.7162 399.499 62.4581 399.5L85.1781 399.54C85.9201 399.541 86.6551 399.396 87.341 399.114C88.027 398.831 88.6506 398.416 89.1762 397.892C89.7018 397.368 90.119 396.746 90.4042 396.061C90.6893 395.376 90.8367 394.642 90.838 393.9L90.8418 391.7ZM608.67 446.34L678.57 446.37C678.799 446.37 679.019 446.28 679.182 446.119C679.345 445.958 679.437 445.739 679.44 445.51L679.52 435.52C679.533 433.673 678.613 432.75 676.76 432.75L609.51 432.78L589.12 432.84C588.46 432.84 588.13 433.17 588.13 433.83L588.17 445.65C588.17 446.097 588.397 446.32 588.85 446.32L608.67 446.34ZM246.24 464.75C230.327 474.623 220.167 488.723 215.76 507.05C215.742 507.127 215.741 507.207 215.758 507.284C215.776 507.36 215.81 507.432 215.859 507.494C215.908 507.556 215.971 507.605 216.042 507.639C216.113 507.673 216.191 507.691 216.27 507.69L268.76 507.63C269.167 507.63 269.383 507.43 269.41 507.03C269.72 501.74 269.18 496.21 273.08 492.1C280.05 484.74 293.69 488.49 293.72 499.5C293.747 509.393 293.77 519.103 293.79 528.63C293.79 529.07 294.01 529.287 294.45 529.28L302.95 529.06C303.106 529.055 303.253 528.989 303.361 528.877C303.47 528.765 303.53 528.616 303.53 528.46C303.42 515.81 301.78 502.41 309.61 491.59C318.36 479.5 327.99 478.55 343.54 478.48C365.873 478.387 388.207 478.383 410.54 478.47C417.387 478.497 422.48 479 425.82 479.98C438.373 483.633 445.763 492.83 447.99 507.57L448.03 528.48C448.03 528.569 448.048 528.657 448.082 528.739C448.116 528.821 448.166 528.895 448.23 528.957C448.293 529.02 448.368 529.069 448.45 529.102C448.533 529.135 448.621 529.151 448.71 529.15L456.27 529.07C456.73 529.063 456.967 528.83 456.98 528.37L457.49 507.71C457.28 502.92 456.27 495.91 459.74 492.2C463.2 488.49 468.15 487.43 472.97 488.98C481.29 491.65 481.76 499.69 481.76 507.25C481.76 507.597 481.93 507.77 482.27 507.77L534.49 507.56C534.578 507.559 534.665 507.539 534.744 507.5C534.823 507.461 534.892 507.405 534.947 507.336C535.002 507.267 535.04 507.187 535.06 507.101C535.079 507.015 535.079 506.926 535.06 506.84C530.88 487.913 520.243 473.623 503.15 463.97C501.977 462.983 500.367 461.973 498.32 460.94C485.97 454.7 474.3 451.52 460.2 451.51C405.967 451.47 351.73 451.47 297.49 451.51C288.35 451.517 281.707 451.847 277.56 452.5C266.95 454.16 254.85 457.94 246.24 464.75ZM329.41 561.11L329.32 611.35C329.32 611.957 329.62 612.26 330.22 612.26C357.987 612.207 385.83 612.2 413.75 612.24C416.383 612.247 418.88 612.143 421.24 611.93C421.713 611.883 421.95 611.623 421.95 611.15L422.15 559.78C422.117 543.607 422.127 527.43 422.18 511.25C422.2 507.49 420.86 503.59 416.64 503.6C390.04 503.693 363.44 503.74 336.84 503.74C332.64 503.74 329.33 505.24 329.26 509.75C329.127 518.75 329.177 535.87 329.41 561.11ZM287.27 556.51C275.06 555.9 267.55 546.87 267.85 535.06C267.863 534.68 267.68 534.49 267.3 534.49L215.47 534.53C215.117 534.53 214.937 534.707 214.93 535.06C214.803 540.04 214.937 545.02 215.33 550C216.86 569.59 231.24 587.15 248.5 595.28C254.673 598.187 260.76 599.93 266.76 600.51C278.847 601.683 290.977 602.067 303.15 601.66C303.303 601.653 303.38 601.577 303.38 601.43L303.47 556.81C303.47 556.437 303.287 556.257 302.92 556.27C294.64 556.537 289.423 556.617 287.27 556.51ZM483.46 535.09C484.16 547.69 475.38 556.49 462.72 556.57C457.96 556.603 453.397 556.53 449.03 556.35C448.397 556.33 448.08 556.633 448.08 557.26L448.06 600.97C448.06 601.45 448.3 601.693 448.78 601.7C462.78 601.97 478.1 602.21 491.95 599.14C512.08 594.68 528.28 579.13 533.87 559.49C536 552.02 536.17 543.27 536.02 535.2C536.013 534.727 535.773 534.49 535.3 534.49L483.96 534.56C483.607 534.56 483.44 534.737 483.46 535.09ZM725.47 664C725.47 663.881 725.423 663.766 725.338 663.682C725.254 663.597 725.139 663.55 725.02 663.55H652.34C652.221 663.55 652.106 663.597 652.022 663.682C651.937 663.766 651.89 663.881 651.89 664V681.04C651.89 681.159 651.937 681.274 652.022 681.358C652.106 681.443 652.221 681.49 652.34 681.49H725.02C725.139 681.49 725.254 681.443 725.338 681.358C725.423 681.274 725.47 681.159 725.47 681.04V664ZM366.09 744.49L385.85 744.43C386.018 744.429 386.184 744.394 386.339 744.329C386.494 744.263 386.634 744.168 386.752 744.048C386.87 743.928 386.963 743.786 387.026 743.631C387.089 743.475 387.121 743.308 387.12 743.14L386.89 676.62C386.879 673.48 385.709 670.473 383.639 668.261C381.569 666.048 378.767 664.81 375.85 664.82H375.53C374.085 664.825 372.656 665.136 371.323 665.736C369.99 666.335 368.78 667.212 367.762 668.315C366.745 669.418 365.939 670.727 365.391 672.165C364.843 673.604 364.564 675.145 364.57 676.7L364.8 743.22C364.801 743.388 364.836 743.554 364.901 743.709C364.967 743.864 365.062 744.004 365.182 744.122C365.302 744.24 365.444 744.333 365.599 744.396C365.755 744.46 365.922 744.491 366.09 744.49ZM303.39 741.6L338.22 741.66C338.733 741.66 338.977 741.403 338.95 740.89C338.117 727.217 330.97 718.91 317.51 715.97C315.183 715.463 312.987 715.243 310.92 715.31C300.34 714.637 292.617 714.61 287.75 715.23C271.98 717.25 261.05 723.74 259.47 740.99C259.423 741.47 259.64 741.71 260.12 741.71L303.39 741.6ZM462.07 741.73L491.43 741.69C491.484 741.69 491.538 741.679 491.588 741.658C491.638 741.636 491.683 741.605 491.72 741.566C491.758 741.527 491.787 741.48 491.805 741.429C491.824 741.378 491.833 741.324 491.83 741.27C491.1 728.55 483.92 720.51 471.95 717.04C467.51 715.753 463.077 715.077 458.65 715.01C452.357 714.863 446.43 714.927 440.87 715.2C424.85 715.98 413.3 724.73 412.26 741.43C412.259 741.468 412.265 741.505 412.278 741.54C412.292 741.575 412.312 741.607 412.338 741.634C412.364 741.662 412.396 741.683 412.43 741.698C412.465 741.712 412.502 741.72 412.54 741.72L462.07 741.73Z" fill="black"/>
<path d="M401.96 29.68C400.76 29.6133 400.157 29.88 400.15 30.48C399.82 48.71 400.23 67.02 400.21 85.26C400.2 99.49 388.84 104.69 376.28 101.93C369.62 100.463 365.79 96.4 364.79 89.74C370.89 96.4733 377.61 97.2967 384.95 92.21C387.997 90.0967 389.537 86.9433 389.57 82.75C389.71 64.4033 389.823 46.09 389.91 27.81C389.911 27.7558 389.923 27.7023 389.946 27.6534C389.969 27.6045 390.002 27.5613 390.043 27.5269C390.084 27.4926 390.132 27.4679 390.183 27.4546C390.235 27.4413 390.288 27.4397 390.34 27.45L401.96 29.68Z" fill="#B1B2B4"/>
<path d="M412.47 33.69C424.057 38.4633 433.983 44.9 442.25 53C460.67 71.04 466.82 92.61 466.07 118.05C466.067 118.17 466.019 118.285 465.935 118.369C465.851 118.453 465.738 118.5 465.62 118.5L438.53 118.56C439.083 110.627 439.36 102.523 439.36 94.25C439.35 73.42 437.07 53.16 419.57 39.21C417.283 37.39 414.917 35.55 412.47 33.69Z" fill="#B1B2B4"/>
<path d="M490.97 88.81C496.06 88.32 501.66 90.55 504.29 95.24C507.09 100.23 505.76 110.88 505.23 116.5C505.177 117.031 504.933 117.525 504.542 117.889C504.152 118.253 503.643 118.463 503.11 118.48L491.59 118.82C491.52 118.823 491.449 118.811 491.384 118.785C491.318 118.76 491.259 118.721 491.209 118.671C491.159 118.621 491.12 118.562 491.095 118.496C491.069 118.431 491.057 118.36 491.06 118.29C491.42 108.677 491.197 99.08 490.39 89.5C490.357 89.08 490.55 88.85 490.97 88.81Z" fill="#B1B2B4"/>
<path d="M91.9599 171.23C91.7899 175.91 91.6199 178.69 87.4899 180.96C81.5399 184.22 74.8099 180.39 74.8099 173.5C74.8166 164.667 74.7066 155.833 74.4799 147C74.3399 141.42 79.3699 136.58 85.0099 137.96C91.6699 139.58 91.9899 144.99 92.0299 150.64C92.0299 150.775 92.0847 150.905 92.1823 151.001C92.2798 151.096 92.412 151.15 92.5499 151.15C97.2233 151.077 101.957 150.933 106.75 150.72C116.73 150.27 120.42 165.78 110.9 169.88C109.487 170.487 107.183 170.717 103.99 170.57C100.183 170.39 96.3766 170.403 92.5699 170.61C92.1766 170.63 91.9733 170.837 91.9599 171.23Z" fill="black"/>
<path d="M659.5 150.42C659.63 147.29 659.68 143.73 661.39 141.2C664.75 136.23 673 136.82 675.91 142.03C676.65 143.343 677.007 145.393 676.98 148.18C676.86 160.34 676.853 168.283 676.96 172.01C677.26 182.01 665.32 186.47 660.26 176.95C659.713 175.917 659.393 173.857 659.3 170.77C659.293 170.417 659.113 170.237 658.76 170.23C653.413 170.157 649.16 170.317 646 170.71C631.52 172.5 631.33 149.92 646.25 150.81C651.023 151.097 655.243 151.163 658.91 151.01C659.283 150.99 659.48 150.793 659.5 150.42Z" fill="black"/>
<path d="M423.97 168.34C425.577 167.807 427.253 167.543 429 167.55C429.14 167.55 429.24 167.51 429.3 167.43C429.38 167.317 429.487 167.25 429.62 167.23C440.53 165.54 440.61 153.17 438.74 145.09C438.671 144.793 438.505 144.526 438.266 144.332C438.027 144.139 437.729 144.029 437.42 144.02L427.54 143.72L465.01 143.47C465.091 143.471 465.171 143.488 465.244 143.522C465.317 143.556 465.382 143.605 465.435 143.666C465.487 143.727 465.525 143.798 465.547 143.875C465.568 143.951 465.573 144.032 465.56 144.11C461.82 166.31 443.3 169.99 423.97 168.34Z" fill="#B1B2B4"/>
<path d="M693.61 221.73C705.94 232.19 707.62 247.5 700.08 261.39C699.74 262.01 699.803 262.59 700.27 263.13C711.21 275.657 715.74 290.193 713.86 306.74C713.487 310.02 712.933 312.527 712.2 314.26C709.367 320.98 704.247 323.877 696.84 322.95L677.3 318.17L652.25 311.62L639.84 309.56C639.513 309.507 639.263 309.34 639.09 309.06C632.98 299.41 626.18 291.76 616.67 285.35C616.37 285.143 616.22 284.86 616.22 284.5L616.24 267.08C616.24 266.693 616.403 266.4 616.73 266.2C616.837 266.14 616.953 266.11 617.08 266.11C617.433 266.117 617.717 265.973 617.93 265.68C623.71 257.667 631.337 252.177 640.81 249.21C642.603 248.643 644.407 248.077 646.22 247.51C646.553 247.403 646.733 247.177 646.76 246.83C646.97 243.56 647.07 240.19 647.88 237.22C653.46 216.78 676.63 209.37 693.61 221.73ZM666.89 245.68L681.88 250.32C682.043 250.371 682.215 250.389 682.386 250.374C682.556 250.358 682.722 250.309 682.874 250.229C683.025 250.149 683.159 250.04 683.268 249.908C683.378 249.776 683.46 249.624 683.51 249.46L683.71 248.8C684.436 246.453 684.256 243.931 683.21 241.788C682.164 239.645 680.337 238.056 678.13 237.37L677.3 237.11C676.206 236.772 675.052 236.666 673.903 236.798C672.755 236.931 671.635 237.299 670.607 237.882C669.579 238.465 668.663 239.252 667.912 240.197C667.161 241.142 666.59 242.227 666.23 243.39L666.03 244.05C665.979 244.214 665.961 244.385 665.976 244.556C665.992 244.727 666.041 244.892 666.121 245.044C666.201 245.195 666.31 245.329 666.442 245.439C666.574 245.548 666.726 245.63 666.89 245.68ZM629.18 285.53C628.987 285.903 629.093 286.14 629.5 286.24L692.76 302.24C692.861 302.266 692.967 302.269 693.07 302.247C693.173 302.226 693.269 302.181 693.351 302.116C693.433 302.051 693.499 301.968 693.544 301.873C693.589 301.779 693.612 301.675 693.61 301.57C693.38 289.29 686.55 273.1 674.21 268.04C655.91 260.54 638.03 268.56 629.18 285.53Z" fill="black"/>
<path d="M480.27 228.16C487.87 228.067 495.447 227.797 503 227.35C503.813 227.303 504.083 227.613 503.81 228.28C503.725 228.475 503.582 228.639 503.4 228.75C473.18 246.29 437.23 255.81 402.27 253.23C377.997 251.443 354.823 244.87 332.75 233.51C326.7 230.39 319.14 232.55 318.71 240.25C318.67 241.057 318.58 241.877 318.44 242.71C318.38 243.043 318.183 243.21 317.85 243.21L315.38 243.22C312.68 240.533 309.95 238.22 307.19 236.28C298.6 230.23 297.89 216.02 313.25 219.84C317.41 220.873 321.573 221.88 325.74 222.86C336.13 225.31 346.92 226.71 357.52 228.41C390.11 233.62 420.37 235.22 455.42 232.23C462.11 231.66 471.94 229.57 480.64 229.85C480.756 229.853 480.87 229.821 480.967 229.757C481.064 229.693 481.14 229.601 481.183 229.494C481.227 229.386 481.236 229.268 481.211 229.154C481.185 229.041 481.126 228.938 481.04 228.86L480.27 228.16Z" fill="#B1B2B4"/>
<path d="M693.61 221.73C695.65 222.523 697.737 222.773 699.87 222.48C705.91 221.64 711.32 221.52 714.16 227.52C715.053 229.4 715.513 232.787 715.54 237.68C715.627 254.927 715.657 272.167 715.63 289.4C715.62 291.26 714.8 293.45 715.47 295.81C715.51 295.95 715.58 296.04 715.68 296.08C715.713 296.093 715.747 296.103 715.78 296.11C715.847 296.13 715.873 296.17 715.86 296.23C715.753 297.057 715.793 298.223 715.98 299.73C716.22 301.73 715.26 303.74 715.42 305.77C715.673 309.017 715.79 311.843 715.77 314.25C715.503 345.583 715.417 376.917 715.51 408.25C715.517 409.59 715.57 410.86 715.67 412.06C715.681 412.196 715.72 412.329 715.784 412.45C715.848 412.57 715.936 412.677 716.043 412.762C716.15 412.847 716.273 412.91 716.405 412.945C716.537 412.981 716.675 412.99 716.81 412.97C733.97 410.5 733.15 423.19 731.89 435.11C730.9 444.51 723.89 445.78 716 444.47C714.66 444.25 713.993 443.387 714 441.88C714.027 432.833 714.013 423.76 713.96 414.66C713.957 414.482 713.886 414.312 713.762 414.185C713.637 414.059 713.468 413.985 713.29 413.98C703.77 413.72 698.02 412.08 697.93 401.13C697.65 366.377 697.64 341.167 697.9 325.5C697.913 324.38 697.56 323.53 696.84 322.95C704.247 323.877 709.367 320.98 712.2 314.26C712.933 312.527 713.487 310.02 713.86 306.74C715.74 290.193 711.21 275.657 700.27 263.13C699.803 262.59 699.74 262.01 700.08 261.39C707.62 247.5 705.94 232.19 693.61 221.73Z" fill="#B1B2B4"/>
<path d="M537.11 261.04C537.15 260.547 537.103 260.157 536.97 259.87C536.93 259.782 536.872 259.702 536.802 259.636C536.731 259.57 536.648 259.519 536.558 259.486C536.467 259.452 536.372 259.437 536.276 259.441C536.18 259.445 536.086 259.469 536 259.51C532.387 261.183 528.867 262.88 525.44 264.6C516.82 268.927 507.9 272.503 498.68 275.33C492.76 277.15 486.837 278.96 480.91 280.76C441.12 292.86 398.78 292.53 359.77 277.64C355.703 276.087 351.807 274.297 348.08 272.27C347.699 272.066 347.276 271.954 346.845 271.943C346.414 271.933 345.987 272.024 345.6 272.21C337.98 275.85 331.82 277.98 321.75 278.73C300.47 280.3 275.74 273.01 256.34 263.16C248.38 259.13 240.8 253.77 233.41 248.31C232.09 247.33 231.083 247.587 230.39 249.08C226.58 257.26 228.28 266.07 225.68 274.55C223.307 282.29 219.187 289.08 213.32 294.92C215.313 290.753 216.37 287.783 216.49 286.01C217.597 270.27 218 254.517 217.7 238.75C217.653 236.177 217.78 233.613 218.08 231.06C218.133 230.627 218.32 230.56 218.64 230.86C231.287 242.767 245.613 252.093 261.62 258.84C284.5 268.49 314.29 273.44 338.01 263.77C338.583 263.537 339.157 263.54 339.73 263.78C382.96 282.15 431.5 283.57 476 268.99C490.24 264.323 503.95 258.44 517.13 251.34C523.217 248.06 529.28 244.74 535.32 241.38C535.74 241.147 536.11 240.997 536.43 240.93C536.513 240.914 536.598 240.916 536.68 240.937C536.761 240.957 536.837 240.996 536.902 241.049C536.967 241.103 537.02 241.17 537.056 241.246C537.092 241.323 537.11 241.406 537.11 241.49V261.04Z" fill="#B1B2B4"/>
<path d="M666.89 245.68C666.726 245.63 666.574 245.548 666.442 245.439C666.31 245.329 666.201 245.195 666.121 245.044C666.041 244.892 665.992 244.727 665.976 244.556C665.961 244.385 665.979 244.214 666.03 244.05L666.23 243.39C666.59 242.227 667.161 241.142 667.912 240.197C668.663 239.252 669.579 238.465 670.607 237.882C671.635 237.299 672.755 236.931 673.903 236.798C675.052 236.666 676.206 236.772 677.3 237.11L678.13 237.37C680.337 238.056 682.164 239.645 683.21 241.788C684.256 243.931 684.436 246.453 683.71 248.8L683.51 249.46C683.46 249.624 683.378 249.776 683.268 249.908C683.159 250.04 683.025 250.149 682.874 250.229C682.722 250.309 682.556 250.358 682.386 250.374C682.215 250.389 682.043 250.371 681.88 250.32L666.89 245.68Z" fill="#FCFEFD"/>
<path d="M477.93 340.26C493.394 340.26 505.93 327.724 505.93 312.26C505.93 296.796 493.394 284.26 477.93 284.26C462.466 284.26 449.93 296.796 449.93 312.26C449.93 327.724 462.466 340.26 477.93 340.26Z" fill="black"/>
<path d="M274.04 340.21C289.454 340.21 301.95 327.714 301.95 312.3C301.95 296.886 289.454 284.39 274.04 284.39C258.626 284.39 246.13 296.886 246.13 312.3C246.13 327.714 258.626 340.21 274.04 340.21Z" fill="black"/>
<path d="M652.25 311.62L677.3 318.17C677.287 318.25 677.2 318.297 677.04 318.31C676.873 318.323 676.79 318.413 676.79 318.58C676.73 322.79 677.4 327.6 676.39 330.08C676.257 330.393 676.023 330.583 675.69 330.65C671.323 331.463 666.957 331.707 662.59 331.38C651.66 330.58 652.45 321.5 652.89 313.49C652.91 313.157 652.847 312.84 652.7 312.54L652.25 311.62Z" fill="#B1B2B4"/>
<path d="M365.59 337.37C371.663 340.29 377.92 340.683 384.36 338.55C389.02 336.997 392.683 333.607 395.35 328.38C397.177 324.78 400.387 323.413 404.98 324.28C414.99 326.17 415.22 338.19 411.19 345.23C409.437 348.277 407.21 350.94 404.51 353.22C393.177 362.753 380.187 365.867 365.54 362.56C359.687 361.24 354.07 358.413 348.69 354.08C340.66 347.62 333.48 334.09 343.21 325.98C345.11 324.39 347.21 324.11 349.7 324.15C355.61 324.25 358.07 330.13 360.91 334.33C361.43 335.103 362.99 336.117 365.59 337.37Z" fill="black"/>
<path d="M233.944 359.665C239.987 358.858 244.245 353.394 243.453 347.46C242.661 341.526 237.12 337.369 231.076 338.175C225.033 338.982 220.775 344.446 221.567 350.38C222.359 356.314 227.9 360.471 233.944 359.665Z" fill="black"/>
<path d="M519.386 359.77C525.549 359.727 530.512 354.83 530.47 348.832C530.428 342.834 525.397 338.007 519.234 338.05C513.071 338.093 508.108 342.99 508.15 348.988C508.192 354.986 513.222 359.813 519.386 359.77Z" fill="black"/>
<path d="M645.26 372.75C653.27 378.01 654.04 393.41 651.88 400.84C648.64 412 632.07 412.36 631.72 398.75C631.64 395.65 631.72 394.44 633.63 391.82C637.863 385.987 641.3 379.77 643.94 373.17C643.99 373.047 644.066 372.937 644.163 372.847C644.26 372.758 644.375 372.69 644.501 372.65C644.627 372.61 644.761 372.598 644.892 372.615C645.023 372.633 645.149 372.679 645.26 372.75Z" fill="#B1B2B4"/>
<path d="M609.51 432.78L676.76 432.75C678.613 432.75 679.533 433.673 679.52 435.52L679.44 445.51C679.437 445.739 679.345 445.958 679.182 446.119C679.019 446.28 678.799 446.37 678.57 446.37L608.67 446.34L609.51 432.78Z" fill="#B1B2B4"/>
<path d="M176.69 436.14C172.89 437.96 170.933 440.913 170.82 445C170.647 451.187 170.567 457.22 170.58 463.1C170.58 463.687 170.283 463.98 169.69 463.98L146.53 463.94C146.33 463.937 146.139 463.856 145.999 463.714C145.859 463.572 145.78 463.38 145.78 463.18L145.75 436.59L176.69 436.14Z" fill="#B1B2B4"/>
<path d="M503.15 463.97C498.06 463.76 493.05 463.45 487.94 463.67C478.08 464.11 468.1 464.72 458.34 464.81C382.14 465.47 325.527 465.437 288.5 464.71C282.687 464.597 271.553 464.203 255.1 463.53C255.007 463.523 254.933 463.48 254.88 463.4L254.66 463.06C254.567 462.92 254.447 462.89 254.3 462.97C254.193 463.023 254.09 463.073 253.99 463.12C253.877 463.173 253.767 463.173 253.66 463.12C250.45 461.42 249.05 464.57 246.24 464.75C254.85 457.94 266.95 454.16 277.56 452.5C281.707 451.847 288.35 451.517 297.49 451.51C351.73 451.47 405.967 451.47 460.2 451.51C474.3 451.52 485.97 454.7 498.32 460.94C500.367 461.973 501.977 462.983 503.15 463.97Z" fill="#B1B2B4"/>
<path d="M457.49 507.71L456.98 528.37C456.967 528.83 456.73 529.063 456.27 529.07L448.71 529.15C448.621 529.151 448.533 529.135 448.45 529.102C448.368 529.069 448.293 529.02 448.23 528.957C448.166 528.895 448.116 528.821 448.082 528.739C448.048 528.657 448.03 528.569 448.03 528.48L447.99 507.57L457.49 507.71Z" fill="#B1B2B4"/>
<path d="M610.84 599.28L612.01 599.06C612.443 598.98 612.553 598.743 612.34 598.35L611.79 597.34C611.61 597.013 611.523 596.663 611.53 596.29L611.66 583.3C611.673 582.14 612.26 581.527 613.42 581.46C615.1 581.36 616.873 581.153 618.74 580.84C625.92 579.62 634.24 580.46 641.58 580.37C663.31 580.1 685.03 580.94 706.75 580.77C708.663 580.757 710.537 580.63 712.37 580.39C712.473 580.376 712.567 580.325 712.635 580.248C712.704 580.17 712.741 580.072 712.74 579.97L712.73 528.5C712.73 528.153 712.557 527.98 712.21 527.98L693.52 528.23L693.7 510.31C693.707 509.797 693.963 509.54 694.47 509.54L724.91 509.41C725.25 509.41 725.42 509.58 725.42 509.92L725.48 598.35C725.48 598.769 725.313 599.171 725.017 599.467C724.721 599.764 724.319 599.93 723.9 599.93L611.48 599.76C611.26 599.76 611.083 599.677 610.95 599.51C610.897 599.437 610.86 599.36 610.84 599.28Z" fill="#B1B2B4"/>
<path d="M180.28 511.54C181.67 513.45 185.97 512.98 188.28 513.22L187.63 527.21C187.62 527.466 187.51 527.707 187.323 527.884C187.137 528.062 186.888 528.16 186.63 528.16L79.0099 528.31C78.4833 528.31 78.2166 528.043 78.2099 527.51L78.1199 513C78.1186 512.901 78.1373 512.803 78.175 512.711C78.2127 512.62 78.2686 512.537 78.3395 512.467C78.4103 512.397 78.4947 512.342 78.5875 512.304C78.6803 512.267 78.7798 512.249 78.8799 512.25C112.36 512.557 145.78 512.56 179.14 512.26C179.59 512.25 180.11 511.9 180.28 511.54Z" fill="#B1B2B4"/>
<path d="M56.4999 528.13L39.8299 528.14C39.2099 528.14 38.8999 528.453 38.8999 529.08C39.0066 548.387 39.0666 567.86 39.0799 587.5C39.0866 593.053 39.3433 597.157 39.8499 599.81L24.7999 599.96C24.7519 599.961 24.704 599.953 24.6592 599.935C24.6143 599.917 24.5735 599.89 24.539 599.855C24.5045 599.821 24.4771 599.78 24.4583 599.734C24.4396 599.688 24.43 599.639 24.4299 599.59L24.4599 512.78C24.4599 512.44 24.6299 512.27 24.9699 512.27L55.9899 512.25C56.2833 512.25 56.4299 512.397 56.4299 512.69L56.4999 528.13Z" fill="#B1B2B4"/>
<path d="M363.63 517.15H350.15C348.057 517.15 346.36 518.847 346.36 520.94V533.28C346.36 535.373 348.057 537.07 350.15 537.07H363.63C365.723 537.07 367.42 535.373 367.42 533.28V520.94C367.42 518.847 365.723 517.15 363.63 517.15Z" fill="black"/>
<path d="M401.997 517.122L388.037 517.098C386.11 517.094 384.545 518.654 384.541 520.582L384.519 533.522C384.515 535.449 386.075 537.014 388.003 537.018L401.963 537.042C403.89 537.046 405.455 535.486 405.459 533.558L405.481 520.618C405.485 518.691 403.925 517.126 401.997 517.122Z" fill="black"/>
<path d="M405.36 560.7L404.92 566.08C404.883 566.554 404.678 566.998 404.342 567.332C404.006 567.666 403.561 567.868 403.09 567.9C398.157 568.273 393.127 568.377 388 568.21C384.27 568.09 384.5 563.68 384.37 560.53C384.257 557.69 384.33 554.843 384.59 551.99C384.803 549.65 386.107 548.487 388.5 548.5C393.26 548.52 397.827 548.627 402.2 548.82C403.072 548.856 403.895 549.23 404.496 549.863C405.097 550.496 405.428 551.337 405.42 552.21L405.36 560.7Z" fill="black"/>
<path d="M367.75 561.53L366.9 566.3C366.733 567.247 366.173 567.753 365.22 567.82C359.86 568.227 354.537 568.32 349.25 568.1C346.03 567.96 346.58 563.42 346.44 560.62C346.24 557.17 345.04 549.07 350.25 548.91C354.67 548.777 359.087 548.747 363.5 548.82C366.18 548.86 367.547 550.253 367.6 553C367.667 556.06 367.717 558.903 367.75 561.53Z" fill="black"/>
<path d="M422.15 559.78L421.95 611.15C421.95 611.623 421.713 611.883 421.24 611.93C418.88 612.143 416.383 612.247 413.75 612.24C385.83 612.2 357.987 612.207 330.22 612.26C329.62 612.26 329.32 611.957 329.32 611.35L329.41 561.11L346.44 560.62C346.58 563.42 346.03 567.96 349.25 568.1C354.537 568.32 359.86 568.227 365.22 567.82C366.173 567.753 366.733 567.247 366.9 566.3L367.75 561.53C372.763 560.83 377.847 560.557 383 560.71C383.24 560.717 383.497 560.81 383.77 560.99C383.99 561.13 384.153 561.08 384.26 560.84C384.3 560.753 384.337 560.65 384.37 560.53C384.5 563.68 384.27 568.09 388 568.21C393.127 568.377 398.157 568.273 403.09 567.9C403.561 567.868 404.006 567.666 404.342 567.332C404.678 566.998 404.883 566.554 404.92 566.08L405.36 560.7C409.687 560.56 413.943 560.733 418.13 561.22C419.19 561.34 419.87 561.75 420.84 562.18C421.004 562.254 421.189 562.266 421.36 562.215C421.531 562.163 421.677 562.051 421.77 561.9C422.083 561.393 422.21 560.687 422.15 559.78ZM401.56 599.36C402.573 599.344 403.539 598.935 404.254 598.218C404.97 597.5 405.377 596.533 405.39 595.52L405.53 583.71C405.537 583.199 405.442 582.692 405.253 582.218C405.064 581.743 404.783 581.311 404.426 580.945C404.069 580.579 403.644 580.287 403.175 580.085C402.705 579.884 402.201 579.777 401.69 579.77L388.43 579.61C387.911 579.605 387.397 579.703 386.917 579.899C386.437 580.095 386.002 580.386 385.635 580.753C385.269 581.12 384.98 581.556 384.785 582.037C384.59 582.517 384.493 583.032 384.5 583.55L384.67 595.72C384.686 596.75 385.109 597.732 385.848 598.45C386.587 599.168 387.58 599.563 388.61 599.55L401.56 599.36ZM367.288 583.466C367.283 582.5 366.895 581.577 366.208 580.897C365.522 580.218 364.594 579.84 363.629 579.845L350.129 579.916C349.164 579.921 348.24 580.309 347.561 580.995C346.882 581.681 346.503 582.609 346.508 583.575L346.572 595.734C346.577 596.7 346.965 597.624 347.652 598.303C348.338 598.982 349.266 599.36 350.231 599.355L363.731 599.284C364.696 599.279 365.62 598.891 366.299 598.205C366.978 597.519 367.357 596.591 367.352 595.625L367.288 583.466Z" fill="#B1B2B4"/>
<path d="M103.86 579.43C109.074 579.43 113.3 575.204 113.3 569.99C113.3 564.776 109.074 560.55 103.86 560.55C98.6464 560.55 94.4199 564.776 94.4199 569.99C94.4199 575.204 98.6464 579.43 103.86 579.43Z" fill="black"/>
<path d="M401.56 599.36L388.61 599.55C387.58 599.563 386.587 599.168 385.848 598.45C385.109 597.732 384.686 596.75 384.67 595.72L384.5 583.55C384.493 583.032 384.59 582.517 384.785 582.037C384.98 581.556 385.269 581.12 385.635 580.753C386.002 580.386 386.437 580.095 386.917 579.899C387.397 579.703 387.911 579.605 388.43 579.61L401.69 579.77C402.201 579.777 402.705 579.884 403.175 580.085C403.644 580.287 404.069 580.579 404.426 580.945C404.783 581.311 405.064 581.743 405.253 582.218C405.442 582.692 405.537 583.199 405.53 583.71L405.39 595.52C405.377 596.533 404.97 597.5 404.254 598.218C403.539 598.935 402.573 599.344 401.56 599.36Z" fill="black"/>
<path d="M363.629 579.845L350.129 579.916C348.119 579.926 346.498 581.564 346.508 583.575L346.572 595.734C346.582 597.745 348.221 599.366 350.231 599.355L363.731 599.284C365.741 599.274 367.362 597.636 367.352 595.625L367.288 583.466C367.277 581.455 365.639 579.834 363.629 579.845Z" fill="black"/>
<path d="M110.85 581.65C106.35 586.41 106.89 592.97 107.02 598.83C107.023 598.976 106.996 599.121 106.943 599.257C106.889 599.393 106.809 599.517 106.708 599.621C106.606 599.725 106.485 599.808 106.352 599.864C106.218 599.921 106.075 599.95 105.93 599.95H82.3999C82.2752 599.95 82.154 599.909 82.0549 599.833C81.9558 599.757 81.8843 599.651 81.8513 599.53C81.8184 599.41 81.8259 599.282 81.8726 599.167C81.9193 599.051 82.0027 598.954 82.1099 598.89C83.2799 598.21 84.4099 597.15 85.0699 595.9C87.6699 590.973 86.9999 585.967 83.0599 580.88L110.85 581.65Z" fill="#B1B2B4"/>
<path d="M169.001 681.765L151.641 681.795C146.047 681.805 141.519 686.348 141.529 691.943L141.531 693.143C141.541 698.738 146.084 703.265 151.679 703.255L169.039 703.225C174.633 703.215 179.161 698.672 179.151 693.077L179.149 691.877C179.139 686.283 174.596 681.755 169.001 681.765Z" fill="black"/>
<path d="M458.65 715.01C463.077 715.077 467.51 715.753 471.95 717.04C483.92 720.51 491.1 728.55 491.83 741.27C491.833 741.324 491.824 741.378 491.805 741.429C491.787 741.48 491.758 741.527 491.72 741.566C491.683 741.605 491.638 741.636 491.588 741.658C491.538 741.679 491.484 741.69 491.43 741.69L462.07 741.73C468.457 731.943 467.317 723.037 458.65 715.01Z" fill="#B1B2B4"/>
<path d="M310.92 715.31C312.987 715.243 315.183 715.463 317.51 715.97C330.97 718.91 338.117 727.217 338.95 740.89C338.977 741.403 338.733 741.66 338.22 741.66L303.39 741.6C305.877 741.28 308.347 741 310.8 740.76C321.01 739.76 318.51 721.12 312.74 716.67C312.22 716.27 311.613 715.817 310.92 715.31Z" fill="#B1B2B4"/>
<path d="M650.481 755.789C649.706 761.447 653.461 766.634 658.867 767.374C664.273 768.115 669.284 764.129 670.059 758.471C670.834 752.813 667.079 747.626 661.673 746.886C656.267 746.145 651.256 750.131 650.481 755.789Z" fill="black"/>
<path d="M80.842 756.526C80.4646 762.207 84.6349 767.111 90.1567 767.477C95.6784 767.844 100.461 763.536 100.838 757.854C101.215 752.173 97.045 747.269 91.5232 746.903C86.0015 746.536 81.2193 750.844 80.842 756.526Z" fill="black"/>
</svg>
